<svg width="14" height="14" viewBox="0 0 14 14" fill="none" xmlns="http://www.w3.org/2000/svg">
<path fill-rule="evenodd" clip-rule="evenodd" d="M14 5.25C14 8.1495 11.6495 10.5 8.75 10.5C8.2196 10.5 7.70757 10.4213 7.22494 10.2751L5.25 12.25H3.5V14H0V10.5L3.72494 6.77506C3.57865 6.29243 3.5 5.7804 3.5 5.25C3.5 2.35051 5.85051 0 8.75 0C11.6495 0 14 2.35051 14 5.25ZM8.75 1.75C8.26675 1.75 7.875 2.14175 7.875 2.625C7.875 3.10825 8.26675 3.5 8.75 3.5C9.7165 3.5 10.5 4.2835 10.5 5.25C10.5 5.73325 10.8918 6.125 11.375 6.125C11.8582 6.125 12.25 5.73325 12.25 5.25C12.25 3.317 10.683 1.75 8.75 1.75Z" fill="white"/>
</svg>
