<svg width="19" height="19" viewBox="0 0 19 19" fill="none" xmlns="http://www.w3.org/2000/svg">
<path d="M18.426 8.09498L1.42601 0.0949839C1.25482 0.0144342 1.0643 -0.0159032 0.876566 0.00749475C0.688831 0.0308927 0.511584 0.107066 0.365408 0.227169C0.219232 0.347272 0.110125 0.506377 0.0507558 0.686008C-0.00861317 0.865639 -0.015808 1.05843 0.030007 1.24198L1.24201 6.09098L9.00001 8.99998L1.24201 11.909L0.030007 16.758C-0.01667 16.9417 -0.0100757 17.1349 0.0490187 17.3149C0.108113 17.495 0.217264 17.6546 0.363704 17.7749C0.510143 17.8952 0.687816 17.9713 0.87594 17.9944C1.06406 18.0174 1.25486 17.9864 1.42601 17.905L18.426 9.90498C18.5978 9.82423 18.7431 9.69624 18.8448 9.53598C18.9466 9.37572 19.0006 9.18981 19.0006 8.99998C19.0006 8.81015 18.9466 8.62424 18.8448 8.46399C18.7431 8.30373 18.5978 8.17574 18.426 8.09498Z" fill="white"/>
</svg>
